<svg width="34" height="47" viewBox="0 0 34 47" fill="none" xmlns="http://www.w3.org/2000/svg">
<path d="M-3.93763e-06 29L0.107996 28.424L3.204 26.948L6.66 7.328L4.068 5.816L4.176 5.24H10.44L20.268 21.62L22.788 7.256L19.224 5.816L19.332 5.24H28.368L28.26 5.816L25.2 7.292L21.348 29.18H19.152L8.352 11.504L5.652 26.948L9.216 28.424L9.108 29H-3.93763e-06Z" fill="black"/>
<path d="M21.096 40.36C19.032 40.36 17.256 39.952 15.768 39.136C14.28 38.296 13.128 37.144 12.312 35.68C11.52 34.216 11.124 32.536 11.124 30.64C11.124 28.672 11.496 26.8 12.24 25.024C12.984 23.248 14.016 21.676 15.336 20.308C16.68 18.94 18.216 17.86 19.944 17.068C21.696 16.276 23.568 15.88 25.56 15.88C27 15.88 28.164 16.036 29.052 16.348C29.94 16.636 30.852 17.056 31.788 17.608L31.068 24.34H30.456L28.116 18.652C27.708 18.292 27.276 18.028 26.82 17.86C26.364 17.668 25.776 17.572 25.056 17.572C23.76 17.572 22.572 17.92 21.492 18.616C20.412 19.312 19.488 20.272 18.72 21.496C17.952 22.696 17.352 24.1 16.92 25.708C16.512 27.316 16.308 29.032 16.308 30.856C16.308 33.208 16.812 35.08 17.82 36.472C18.852 37.864 20.244 38.56 21.996 38.56C22.716 38.56 23.412 38.452 24.084 38.236C24.756 37.996 25.404 37.696 26.028 37.336L29.952 32.404H30.564L29.124 38.488C28.116 39.064 26.94 39.52 25.596 39.856C24.252 40.192 22.752 40.36 21.096 40.36Z" fill="black"/>
</svg>
